<?xml version="1.0" encoding="UTF-8" standalone="no"?>
<!-- Created with Inkscape (http://www.inkscape.org/) -->

<svg
   width="40.952408mm"
   height="40.952412mm"
   viewBox="0 0 40.952408 40.952412"
   version="1.1"
   id="svg1"
   xml:space="preserve"
   xmlns:inkscape="http://www.inkscape.org/namespaces/inkscape"
   xmlns:sodipodi="http://sodipodi.sourceforge.net/DTD/sodipodi-0.dtd"
   xmlns="http://www.w3.org/2000/svg"
   xmlns:svg="http://www.w3.org/2000/svg"><sodipodi:namedview
     id="namedview1"
     pagecolor="#ffffff"
     bordercolor="#000000"
     borderopacity="0.25"
     inkscape:showpageshadow="2"
     inkscape:pageopacity="0.0"
     inkscape:pagecheckerboard="0"
     inkscape:deskcolor="#d1d1d1"
     inkscape:document-units="mm" /><defs
     id="defs1" /><g
     inkscape:label="Layer 1"
     inkscape:groupmode="layer"
     id="layer1"
     transform="translate(-87.041231,-79.809049)"><rect
       style="fill:#9fa3b0;fill-opacity:1;stroke-width:0.264583"
       id="rect1"
       width="40.952412"
       height="40.952412"
       x="87.041229"
       y="79.809052"
       ry="9.4840717"
       inkscape:export-filename="./rect1.svg"
       inkscape:export-xdpi="72"
       inkscape:export-ydpi="72" /><g
       style="fill:#1c274c;fill-opacity:1"
       id="g2"
       transform="matrix(1.4542557,0,0,1.4542557,91.09462,83.509663)"><path
         fill-rule="evenodd"
         clip-rule="evenodd"
         d="m 16.9394,2.35352 c 0.5858,-0.58578 1.5355,-0.58578 2.1213,0 l 1.4142,1.41422 c 0.5858,0.58578 0.5858,1.53553 0,2.12132 l -2.8284,2.82843 c -0.5858,0.58578 -1.5355,0.58578 -2.1213,0 L 15.2574,8.44975 14.1998,9.50743 15.753,11.0607 c 0.9764,0.9763 0.9764,2.5592 0,3.5355 l -1.4142,1.4143 c -0.9763,0.9763 -2.5592,0.9763 -3.5355,0 L 9.25002,14.4572 8.2072,15.5 8.47493,15.7677 c 0.58579,0.5858 0.58579,1.5356 0,2.1214 L 5.6465,20.7175 c -0.58578,0.5858 -1.53553,0.5858 -2.12132,0 L 2.11097,19.3033 c -0.58579,-0.5858 -0.58579,-1.5356 0,-2.1213 L 4.9394,14.3535 c 0.58578,-0.5858 1.53553,-0.5858 2.12132,0 l 0.43937,0.4394 1.04283,-1.0428 -1.98226,-1.9823 c -0.97631,-0.9763 -0.97631,-2.55921 0,-3.53552 L 7.97487,6.81807 c 0.97631,-0.97631 2.55923,-0.97631 3.53553,0 L 13.4927,8.80032 14.5503,7.74264 14.111,7.30327 c -0.5858,-0.58578 -0.5858,-1.53553 0,-2.12132 z M 7.14093,15.848 6.35361,15.0606 c -0.19526,-0.1952 -0.51184,-0.1952 -0.70711,0 l -2.82842,2.8285 c -0.19526,0.1952 -0.19526,0.5118 0,0.7071 l 1.41421,1.4142 c 0.19526,0.1952 0.51185,0.1952 0.70711,0 L 7.76782,17.182 c 0.19527,-0.1953 0.19527,-0.5119 0,-0.7072 L 7.15214,15.8592 C 7.15025,15.8573 7.14837,15.8555 7.14649,15.8536 7.14462,15.8517 7.14277,15.8498 7.14093,15.848 Z M 18.3536,3.06063 c -0.1953,-0.19526 -0.5118,-0.19526 -0.7071,0 l -2.8284,2.82843 c -0.1953,0.19526 -0.1953,0.51184 0,0.70711 l 1.4142,1.41421 c 0.1953,0.19526 0.5118,0.19526 0.7071,0 l 2.8284,-2.82843 c 0.1953,-0.19526 0.1953,-0.51184 0,-0.70711 z M 7.26777,11.0607 c -0.58579,-0.5858 -0.58579,-1.53553 0,-2.12131 L 8.68198,7.52517 c 0.58579,-0.58578 1.53552,-0.58578 2.12132,0 l 4.2426,4.24263 c 0.5858,0.5858 0.5858,1.5355 0,2.1213 l -1.4142,1.4142 c -0.5858,0.5858 -1.5355,0.5858 -2.1213,0 z"
         fill="#47495f"
         id="path1-5"
         style="fill:#1c274c;fill-opacity:1;stroke:#1c274c;stroke-width:0.642677;stroke-dasharray:none;stroke-opacity:1" /><path
         fill-rule="evenodd"
         clip-rule="evenodd"
         d="m 17.571,16.4217 c -0.1067,0.2577 -0.2631,0.4918 -0.4603,0.689 -0.1972,0.1971 -0.4313,0.3536 -0.689,0.4603 -0.2576,0.1067 -0.5338,0.1616 -0.8126,0.1616 -0.2762,0 -0.5,-0.2238 -0.5,-0.5 0,-0.2761 0.2238,-0.5 0.5,-0.5 0.1475,0 0.2936,-0.029 0.4299,-0.0855 0.1364,-0.0565 0.2602,-0.1392 0.3646,-0.2436 0.1043,-0.1043 0.1871,-0.2281 0.2435,-0.3645 0.0565,-0.1363 0.0855,-0.2824 0.0855,-0.4299 0,-0.2762 0.2239,-0.5 0.5,-0.5 0.2762,0 0.5001,0.2238 0.5001,0.5 0,0.2788 -0.055,0.555 -0.1617,0.8126 z"
         fill="#47495f"
         id="path2-3"
         style="fill:#1c274c;fill-opacity:1;stroke:#1c274c;stroke-width:0.642677;stroke-dasharray:none;stroke-opacity:1" /><path
         fill-rule="evenodd"
         clip-rule="evenodd"
         d="m 19.551,16.9097 c -0.2233,0.6112 -0.5716,1.1606 -1.0261,1.6151 -0.4545,0.4546 -1.004,0.8029 -1.6152,1.0261 -0.6109,0.2232 -1.27,0.3164 -1.9384,0.2779 -0.2757,-0.0159 -0.4863,-0.2523 -0.4704,-0.528 0.0159,-0.2757 0.2523,-0.4863 0.528,-0.4704 0.5383,0.0311 1.0605,-0.0444 1.5377,-0.2188 0.4771,-0.1742 0.9016,-0.4443 1.2512,-0.7939 0.3495,-0.3495 0.6196,-0.774 0.7939,-1.2511 0.1743,-0.4773 0.2498,-0.9995 0.2188,-1.5378 -0.0159,-0.2757 0.1946,-0.512 0.4703,-0.528 0.2757,-0.0159 0.5121,0.1947 0.528,0.4704 0.0386,0.6685 -0.0547,1.3275 -0.2778,1.9385 z"
         fill="#47495f"
         id="path3-5"
         style="fill:#1c274c;fill-opacity:1;stroke:#1c274c;stroke-width:0.642677;stroke-dasharray:none;stroke-opacity:1" /></g></g></svg>
